# xmcd CD database file
# Copyright (C) 1993-1999 CDDB, Inc.
#
# Track frame offsets:
#	150
#	11980
#	20595
#	34235
#	49488
#	63268
#	74088
#	85420
#	99950
#	111870
#	124473
#	134670
#	146100
#	160057
#	177138
#	190108
#	203093
#	212961
#	226431
#	236701
#	251706
#
# Disc length: 3541
#
# Revision: 1
# Processed by: cddbd v1.4PL0 Copyright (c) Steve Scherf et al.
# Submitted via: CoolCD_Studio 1.3.1
#
DISCID=460dd315
DTITLE=Various Artist - Country Planet (The best of country music)
DYEAR=1900
DGENRE=
TTITLE0=Kitty Wells - It Wasn't Good Who Made Honk Tonk Angels
TTITLE1=Bille Jo Spears - Baby On My Mind
TTITLE2=Lynn Anderson - Rose Garden
TTITLE3=Jeanie C. Riley - Harper Valey
TTITLE4=Willie Nelson - No Tomorrow in Sight
TTITLE5=Jerry Lee Lewis and Linda Gait Lewis - Jackson
TTITLE6=Conway Twitty - Big Town
TTITLE7=Bob Luman - Lonely Women Make Good Lovers
TTITLE8=Bobby Bare - Music City USA
TTITLE9=Porter  Wagoner - Satisfied Mind
TTITLE10=Jonny Cash - Rock Island Line
TTITLE11=Roger Miller - King Of The Road
TTITLE12=Jimmy Dean - Big Bad John
TTITLE13=Boxcar Willie - Take Me Home
TTITLE14=Faron Young - It's Four In The Morning
TTITLE15=Charley Pride - Crystal Chandeliers
TTITLE16=Charley Pride - Kiss An Angel Good Morning
TTITLE17=Wanda Jackson - I Fall To Pieces
TTITLE18=Hank Locklin - Please Help Me I'm Falling
TTITLE19=Johnny Paycheck - I'm The Only Hell mama Ever Raised
TTITLE20=Pasty Cline - A Church, A Courtroom, Then Good-bye
EXTD=
EXTT0=
EXTT1=
EXTT2=
EXTT3=
EXTT4=
EXTT5=
EXTT6=
EXTT7=
EXTT8=
EXTT9=
EXTT10=
EXTT11=
EXTT12=
EXTT13=
EXTT14=
EXTT15=
EXTT16=
EXTT17=
EXTT18=
EXTT19=
EXTT20=
PLAYORDER=
